<mxfile host="app.diagrams.net" agent="Mozilla/5.0 (Windows NT 10.0; Win64; x64) AppleWebKit/537.36 (KHTML, like Gecko) Chrome/135.0.0.0 Safari/537.36" version="26.2.9">
  <diagram name="Page-1" id="74e2e168-ea6b-b213-b513-2b3c1d86103e">
    <mxGraphModel dx="1491" dy="753" grid="1" gridSize="10" guides="1" tooltips="1" connect="1" arrows="1" fold="1" page="1" pageScale="1" pageWidth="1100" pageHeight="850" background="none" math="0" shadow="0">
      <root>
        <mxCell id="0" />
        <mxCell id="1" parent="0" />
        <mxCell id="0MsAmPBSIb7bQHEWJLdw-7" value="用户中心" style="rounded=0;whiteSpace=wrap;html=1;" vertex="1" parent="1">
          <mxGeometry x="320" y="130" width="120" height="60" as="geometry" />
        </mxCell>
        <mxCell id="0MsAmPBSIb7bQHEWJLdw-8" value="Web服务" style="rounded=0;whiteSpace=wrap;html=1;" vertex="1" parent="1">
          <mxGeometry x="520" y="130" width="120" height="60" as="geometry" />
        </mxCell>
        <mxCell id="0MsAmPBSIb7bQHEWJLdw-9" value="用户&lt;div&gt;&lt;br&gt;&lt;/div&gt;" style="shape=umlActor;verticalLabelPosition=bottom;verticalAlign=top;html=1;outlineConnect=0;" vertex="1" parent="1">
          <mxGeometry x="165" y="130" width="30" height="60" as="geometry" />
        </mxCell>
        <mxCell id="0MsAmPBSIb7bQHEWJLdw-10" value="" style="rounded=0;whiteSpace=wrap;html=1;fillColor=#000000;" vertex="1" parent="1">
          <mxGeometry x="170" y="230" width="20" height="100" as="geometry" />
        </mxCell>
        <mxCell id="0MsAmPBSIb7bQHEWJLdw-11" value="" style="rounded=0;whiteSpace=wrap;html=1;fillColor=#000000;" vertex="1" parent="1">
          <mxGeometry x="170" y="370" width="20" height="75" as="geometry" />
        </mxCell>
        <mxCell id="0MsAmPBSIb7bQHEWJLdw-12" value="" style="rounded=0;whiteSpace=wrap;html=1;fillColor=#000000;" vertex="1" parent="1">
          <mxGeometry x="170" y="520" width="20" height="75" as="geometry" />
        </mxCell>
        <mxCell id="0MsAmPBSIb7bQHEWJLdw-13" value="" style="rounded=0;whiteSpace=wrap;html=1;fillColor=#000000;" vertex="1" parent="1">
          <mxGeometry x="170" y="740" width="20" height="50" as="geometry" />
        </mxCell>
        <mxCell id="0MsAmPBSIb7bQHEWJLdw-14" value="" style="rounded=0;whiteSpace=wrap;html=1;fillColor=#000000;" vertex="1" parent="1">
          <mxGeometry x="370" y="445" width="20" height="75" as="geometry" />
        </mxCell>
        <mxCell id="0MsAmPBSIb7bQHEWJLdw-15" value="" style="rounded=0;whiteSpace=wrap;html=1;fillColor=#000000;" vertex="1" parent="1">
          <mxGeometry x="570" y="270" width="20" height="100" as="geometry" />
        </mxCell>
        <mxCell id="0MsAmPBSIb7bQHEWJLdw-17" value="" style="rounded=0;whiteSpace=wrap;html=1;fillColor=#000000;" vertex="1" parent="1">
          <mxGeometry x="570" y="595" width="20" height="75" as="geometry" />
        </mxCell>
        <mxCell id="0MsAmPBSIb7bQHEWJLdw-18" value="" style="rounded=0;whiteSpace=wrap;html=1;fillColor=#000000;" vertex="1" parent="1">
          <mxGeometry x="370" y="650" width="20" height="75" as="geometry" />
        </mxCell>
        <mxCell id="0MsAmPBSIb7bQHEWJLdw-19" value="" style="rounded=0;whiteSpace=wrap;html=1;fillColor=#000000;" vertex="1" parent="1">
          <mxGeometry x="570" y="725" width="20" height="65" as="geometry" />
        </mxCell>
        <mxCell id="0MsAmPBSIb7bQHEWJLdw-21" value="" style="endArrow=none;dashed=1;html=1;rounded=0;entryX=0.5;entryY=1;entryDx=0;entryDy=0;" edge="1" parent="1" target="0MsAmPBSIb7bQHEWJLdw-7">
          <mxGeometry width="50" height="50" relative="1" as="geometry">
            <mxPoint x="380" y="800" as="sourcePoint" />
            <mxPoint x="390" y="230" as="targetPoint" />
          </mxGeometry>
        </mxCell>
        <mxCell id="0MsAmPBSIb7bQHEWJLdw-22" value="" style="endArrow=none;dashed=1;html=1;rounded=0;" edge="1" parent="1" target="0MsAmPBSIb7bQHEWJLdw-9">
          <mxGeometry width="50" height="50" relative="1" as="geometry">
            <mxPoint x="180" y="800.7999877929688" as="sourcePoint" />
            <mxPoint x="140" y="220" as="targetPoint" />
          </mxGeometry>
        </mxCell>
        <mxCell id="0MsAmPBSIb7bQHEWJLdw-23" value="" style="endArrow=none;dashed=1;html=1;rounded=0;entryX=0.5;entryY=1;entryDx=0;entryDy=0;" edge="1" parent="1" target="0MsAmPBSIb7bQHEWJLdw-8">
          <mxGeometry width="50" height="50" relative="1" as="geometry">
            <mxPoint x="580" y="802.4000244140625" as="sourcePoint" />
            <mxPoint x="570" y="220" as="targetPoint" />
          </mxGeometry>
        </mxCell>
        <mxCell id="0MsAmPBSIb7bQHEWJLdw-24" value="" style="endArrow=classic;html=1;rounded=0;exitX=1.044;exitY=0.401;exitDx=0;exitDy=0;entryX=0;entryY=0;entryDx=0;entryDy=0;exitPerimeter=0;" edge="1" parent="1" source="0MsAmPBSIb7bQHEWJLdw-10" target="0MsAmPBSIb7bQHEWJLdw-15">
          <mxGeometry width="50" height="50" relative="1" as="geometry">
            <mxPoint x="430" y="520" as="sourcePoint" />
            <mxPoint x="290" y="260" as="targetPoint" />
          </mxGeometry>
        </mxCell>
        <mxCell id="0MsAmPBSIb7bQHEWJLdw-25" value="检查cookie中是否存在token" style="rounded=0;whiteSpace=wrap;html=1;" vertex="1" parent="1">
          <mxGeometry x="610" y="250" width="70" height="60" as="geometry" />
        </mxCell>
        <mxCell id="0MsAmPBSIb7bQHEWJLdw-26" value="" style="endArrow=classic;html=1;rounded=0;exitX=0;exitY=1;exitDx=0;exitDy=0;entryX=1;entryY=0;entryDx=0;entryDy=0;dashed=1;" edge="1" parent="1" source="0MsAmPBSIb7bQHEWJLdw-15" target="0MsAmPBSIb7bQHEWJLdw-11">
          <mxGeometry width="50" height="50" relative="1" as="geometry">
            <mxPoint x="300" y="370" as="sourcePoint" />
            <mxPoint x="350" y="320" as="targetPoint" />
          </mxGeometry>
        </mxCell>
        <mxCell id="0MsAmPBSIb7bQHEWJLdw-27" value="不存在 重定向至用户中心" style="edgeLabel;html=1;align=center;verticalAlign=middle;resizable=0;points=[];" vertex="1" connectable="0" parent="0MsAmPBSIb7bQHEWJLdw-26">
          <mxGeometry x="0.3349" y="-2" relative="1" as="geometry">
            <mxPoint as="offset" />
          </mxGeometry>
        </mxCell>
        <mxCell id="0MsAmPBSIb7bQHEWJLdw-28" value="填写用户信息" style="rounded=0;whiteSpace=wrap;html=1;" vertex="1" parent="1">
          <mxGeometry x="70" y="380" width="80" height="30" as="geometry" />
        </mxCell>
        <mxCell id="0MsAmPBSIb7bQHEWJLdw-29" value="" style="endArrow=classic;html=1;rounded=0;exitX=1;exitY=1;exitDx=0;exitDy=0;entryX=0;entryY=0;entryDx=0;entryDy=0;" edge="1" parent="1" source="0MsAmPBSIb7bQHEWJLdw-11" target="0MsAmPBSIb7bQHEWJLdw-14">
          <mxGeometry width="50" height="50" relative="1" as="geometry">
            <mxPoint x="350" y="570" as="sourcePoint" />
            <mxPoint x="400" y="520" as="targetPoint" />
          </mxGeometry>
        </mxCell>
        <mxCell id="0MsAmPBSIb7bQHEWJLdw-30" value="核对用户信息" style="rounded=0;whiteSpace=wrap;html=1;" vertex="1" parent="1">
          <mxGeometry x="400" y="458.75" width="80" height="47.5" as="geometry" />
        </mxCell>
        <mxCell id="0MsAmPBSIb7bQHEWJLdw-31" value="" style="endArrow=classic;html=1;rounded=0;exitX=0;exitY=1;exitDx=0;exitDy=0;entryX=1;entryY=0;entryDx=0;entryDy=0;dashed=1;" edge="1" parent="1" source="0MsAmPBSIb7bQHEWJLdw-14" target="0MsAmPBSIb7bQHEWJLdw-12">
          <mxGeometry width="50" height="50" relative="1" as="geometry">
            <mxPoint x="580" y="380" as="sourcePoint" />
            <mxPoint x="200" y="380" as="targetPoint" />
          </mxGeometry>
        </mxCell>
        <mxCell id="0MsAmPBSIb7bQHEWJLdw-33" value="用户登录保存token" style="edgeLabel;html=1;align=center;verticalAlign=middle;resizable=0;points=[];" vertex="1" connectable="0" parent="0MsAmPBSIb7bQHEWJLdw-31">
          <mxGeometry x="0.2854" relative="1" as="geometry">
            <mxPoint as="offset" />
          </mxGeometry>
        </mxCell>
        <mxCell id="0MsAmPBSIb7bQHEWJLdw-34" value="" style="endArrow=classic;html=1;rounded=0;exitX=1;exitY=1;exitDx=0;exitDy=0;entryX=0;entryY=0;entryDx=0;entryDy=0;" edge="1" parent="1" source="0MsAmPBSIb7bQHEWJLdw-12" target="0MsAmPBSIb7bQHEWJLdw-17">
          <mxGeometry width="50" height="50" relative="1" as="geometry">
            <mxPoint x="360" y="590" as="sourcePoint" />
            <mxPoint x="410" y="540" as="targetPoint" />
          </mxGeometry>
        </mxCell>
        <mxCell id="0MsAmPBSIb7bQHEWJLdw-35" value="带token跳转" style="edgeLabel;html=1;align=center;verticalAlign=middle;resizable=0;points=[];" vertex="1" connectable="0" parent="0MsAmPBSIb7bQHEWJLdw-34">
          <mxGeometry x="-0.6392" relative="1" as="geometry">
            <mxPoint as="offset" />
          </mxGeometry>
        </mxCell>
        <mxCell id="0MsAmPBSIb7bQHEWJLdw-36" value="检查cookie中是否存在token" style="rounded=0;whiteSpace=wrap;html=1;" vertex="1" parent="1">
          <mxGeometry x="610" y="590" width="70" height="60" as="geometry" />
        </mxCell>
        <mxCell id="0MsAmPBSIb7bQHEWJLdw-37" value="" style="endArrow=classic;html=1;rounded=0;exitX=0;exitY=1;exitDx=0;exitDy=0;entryX=1;entryY=0;entryDx=0;entryDy=0;dashed=1;" edge="1" parent="1">
          <mxGeometry width="50" height="50" relative="1" as="geometry">
            <mxPoint x="570" y="670" as="sourcePoint" />
            <mxPoint x="390" y="670" as="targetPoint" />
          </mxGeometry>
        </mxCell>
        <mxCell id="0MsAmPBSIb7bQHEWJLdw-41" value="存在 提交用户中心核实" style="edgeLabel;html=1;align=center;verticalAlign=middle;resizable=0;points=[];" vertex="1" connectable="0" parent="0MsAmPBSIb7bQHEWJLdw-37">
          <mxGeometry x="0.119" y="1" relative="1" as="geometry">
            <mxPoint as="offset" />
          </mxGeometry>
        </mxCell>
        <mxCell id="0MsAmPBSIb7bQHEWJLdw-42" value="" style="endArrow=classic;html=1;rounded=0;exitX=1;exitY=1;exitDx=0;exitDy=0;entryX=0;entryY=0;entryDx=0;entryDy=0;" edge="1" parent="1" source="0MsAmPBSIb7bQHEWJLdw-18" target="0MsAmPBSIb7bQHEWJLdw-19">
          <mxGeometry width="50" height="50" relative="1" as="geometry">
            <mxPoint x="440" y="750" as="sourcePoint" />
            <mxPoint x="490" y="700" as="targetPoint" />
          </mxGeometry>
        </mxCell>
        <mxCell id="0MsAmPBSIb7bQHEWJLdw-43" value="身份认证" style="edgeLabel;html=1;align=center;verticalAlign=middle;resizable=0;points=[];" vertex="1" connectable="0" parent="0MsAmPBSIb7bQHEWJLdw-42">
          <mxGeometry x="-0.3159" y="1" relative="1" as="geometry">
            <mxPoint as="offset" />
          </mxGeometry>
        </mxCell>
        <mxCell id="0MsAmPBSIb7bQHEWJLdw-44" value="" style="endArrow=classic;html=1;rounded=0;exitX=0;exitY=1;exitDx=0;exitDy=0;entryX=1;entryY=1;entryDx=0;entryDy=0;dashed=1;" edge="1" parent="1" source="0MsAmPBSIb7bQHEWJLdw-19" target="0MsAmPBSIb7bQHEWJLdw-13">
          <mxGeometry width="50" height="50" relative="1" as="geometry">
            <mxPoint x="490" y="780" as="sourcePoint" />
            <mxPoint x="310" y="780" as="targetPoint" />
          </mxGeometry>
        </mxCell>
        <mxCell id="0MsAmPBSIb7bQHEWJLdw-46" value="服务页面" style="edgeLabel;html=1;align=center;verticalAlign=middle;resizable=0;points=[];" vertex="1" connectable="0" parent="0MsAmPBSIb7bQHEWJLdw-44">
          <mxGeometry x="0.7301" y="1" relative="1" as="geometry">
            <mxPoint as="offset" />
          </mxGeometry>
        </mxCell>
      </root>
    </mxGraphModel>
  </diagram>
</mxfile>
